<svg width="25" height="24" viewBox="0 0 25 24" fill="none" xmlns="http://www.w3.org/2000/svg">
<path d="M22.8899 12.25C22.8899 12.8828 22.3625 13.375 21.7649 13.375H20.6399L20.675 19C20.675 19.1055 20.675 19.2109 20.675 19.2812V19.8438C20.675 20.6523 20.0422 21.25 19.2688 21.25H18.7063C18.636 21.25 18.6008 21.25 18.5657 21.25C18.5305 21.25 18.4602 21.25 18.425 21.25H17.3H16.4563C15.6477 21.25 15.05 20.6523 15.05 19.8438V19V16.75C15.05 16.1523 14.5227 15.625 13.925 15.625H11.675C11.0422 15.625 10.55 16.1523 10.55 16.75V19V19.8438C10.55 20.6523 9.91724 21.25 9.1438 21.25H8.30005H7.17505C7.10474 21.25 7.06958 21.25 6.99927 21.25C6.96411 21.25 6.92896 21.25 6.8938 21.25H6.3313C5.52271 21.25 4.92505 20.6523 4.92505 19.8438V15.9062C4.92505 15.9062 4.92505 15.8711 4.92505 15.8359V13.375H3.80005C3.16724 13.375 2.67505 12.8828 2.67505 12.25C2.67505 11.9336 2.78052 11.6523 3.02661 11.4062L12.0266 3.53125C12.2727 3.28516 12.554 3.25 12.8 3.25C13.0461 3.25 13.3274 3.32031 13.5383 3.49609L22.5032 11.4062C22.7844 11.6523 22.925 11.9336 22.8899 12.25Z" fill="#399DEB"/>
</svg>
